<?xml version="1.0" ?><!-- Uploaded to: SVG Repo, www.svgrepo.com, Generator: SVG Repo Mixer Tools -->
<svg width="800px" height="800px" viewBox="0 0 24 24" fill="none" xmlns="http://www.w3.org/2000/svg"><rect height="16" rx="5" stroke="#6B7B94" stroke-linecap="round" stroke-linejoin="round" width="16" x="4" y="4"/><path d="M13.5 11C13.5 10.4477 13.9477 10 14.5 10H15.5C16.0523 10 16.5 10.4477 16.5 11V16C16.5 16.5523 16.0523 17 15.5 17H13.5V11Z" stroke="#6B7B94" stroke-linecap="round" stroke-linejoin="round"/><path d="M10.5 8C10.5 7.44772 10.9477 7 11.5 7H12.5C13.0523 7 13.5 7.44772 13.5 8V17H10.5V8Z" stroke="#6B7B94" stroke-linecap="round" stroke-linejoin="round"/><path d="M7.5 14C7.5 13.4477 7.94772 13 8.5 13H9.5C10.0523 13 10.5 13.4477 10.5 14V17H8.5C7.94772 17 7.5 16.5523 7.5 16V14Z" stroke="#6B7B94" stroke-linecap="round" stroke-linejoin="round"/></svg>